<svg xmlns="http://www.w3.org/2000/svg" xmlns:xlink="http://www.w3.org/1999/xlink" preserveAspectRatio="xMidYMid" width="24" height="24" viewBox="0 0 24 24">
  <defs>
    <style>
      .cls-1 {
        fill: #d2230e;
        fill-rule: evenodd;
      }
    </style>
  </defs>
  <path d="M12.000,24.000 C5.383,24.000 0.000,18.617 0.000,12.000 C0.000,5.384 5.383,0.000 12.000,0.000 C18.617,0.000 24.000,5.384 24.000,12.000 C24.000,18.617 18.617,24.000 12.000,24.000 ZM12.000,2.000 C6.486,2.000 2.000,6.486 2.000,12.000 C2.000,17.514 6.486,22.000 12.000,22.000 C17.514,22.000 22.000,17.514 22.000,12.000 C22.000,6.486 17.514,2.000 12.000,2.000 ZM14.707,16.707 C14.512,16.902 14.256,17.000 14.000,17.000 C13.744,17.000 13.488,16.902 13.293,16.707 L9.293,12.707 C8.902,12.317 8.902,11.683 9.293,11.293 L13.293,7.293 C13.684,6.902 14.316,6.902 14.707,7.293 C15.098,7.684 15.098,8.317 14.707,8.707 L11.414,12.000 L14.707,15.293 C15.098,15.683 15.098,16.317 14.707,16.707 Z" class="cls-1"/>
</svg>
