<!-- <?xml version="1.0" encoding="utf-8"?> -->
<!-- Generated by IcoMoon.io -->
<!-- <!DOCTYPE svg PUBLIC "-//W3C//DTD SVG 1.1//EN" "http://www.w3.org/Graphics/SVG/1.1/DTD/svg11.dtd">
<svg version="1.1" xmlns="http://www.w3.org/2000/svg" xmlns:xlink="http://www.w3.org/1999/xlink" width="43" height="32" viewBox="0 0 43 32">
<path d="M36.575 5.229c1.756-0.952 3.105-2.46 3.74-4.257-1.644 0.882-3.464 1.522-5.402 1.867-1.551-1.495-3.762-2.429-6.209-2.429-4.697 0-8.506 3.445-8.506 7.694 0 0.603 0.075 1.19 0.22 1.753-7.069-0.321-13.337-3.384-17.532-8.039-0.732 1.136-1.152 2.458-1.152 3.868 0 2.669 1.502 5.024 3.784 6.404-1.394-0.040-2.706-0.386-3.853-0.962-0.001 0.032-0.001 0.064-0.001 0.097 0 3.728 2.932 6.837 6.823 7.544-0.714 0.176-1.465 0.27-2.241 0.27-0.548 0-1.081-0.048-1.6-0.138 1.083 3.057 4.224 5.281 7.946 5.343-2.911 2.064-6.579 3.294-10.564 3.294-0.687 0-1.364-0.036-2.029-0.108 3.764 2.183 8.235 3.457 13.039 3.457 15.646 0 24.202-11.724 24.202-21.891 0-0.334-0.008-0.665-0.025-0.995 1.662-1.085 3.104-2.439 4.244-3.982-1.525 0.612-3.165 1.025-4.885 1.211z"></path>
</svg> -->
<svg width="32" height="31" viewBox="0 0 32 31" fill="none" xmlns="http://www.w3.org/2000/svg">
<g clip-path="url(#clip0_679_2583)">
<path d="M15.7812 0.500031H16.0938C24.378 0.500031 31.0938 7.21574 31.0938 15.4998C31.0938 23.7843 24.378 30.5 16.0938 30.5H15.7812C7.49694 30.5 0.781216 23.7843 0.781216 15.4998C0.781216 7.21574 7.49694 0.500031 15.7812 0.500031Z" fill="black" fill-opacity="0.01" stroke="black"/>
<path d="M21.5508 13.9062C22.0977 13.4961 22.5898 13.0039 22.9727 12.4297C22.4805 12.6484 21.9062 12.8125 21.332 12.8672C21.9336 12.5117 22.3711 11.9648 22.5898 11.2812C22.043 11.6094 21.4141 11.8555 20.7852 11.9922C20.2383 11.418 19.5 11.0898 18.6797 11.0898C17.0938 11.0898 15.8086 12.375 15.8086 13.9609C15.8086 14.1797 15.8359 14.3984 15.8906 14.6172C13.5117 14.4805 11.3789 13.332 9.95703 11.6094C9.71094 12.0195 9.57422 12.5117 9.57422 13.0586C9.57422 14.043 10.0664 14.918 10.8594 15.4375C10.3945 15.4102 9.92969 15.3008 9.54688 15.082V15.1094C9.54688 16.5039 10.5312 17.6523 11.8438 17.9258C11.625 17.9805 11.3516 18.0352 11.1055 18.0352C10.9141 18.0352 10.75 18.0078 10.5586 17.9805C10.9141 19.1289 11.9805 19.9492 13.2383 19.9766C12.2539 20.7422 11.0234 21.207 9.68359 21.207C9.4375 21.207 9.21875 21.1797 9 21.1523C10.2578 21.9727 11.7617 22.4375 13.4023 22.4375C18.6797 22.4375 21.5508 18.0898 21.5508 14.2891C21.5508 14.1523 21.5508 14.043 21.5508 13.9062Z" fill="black"/>
</g>
<defs>
<clipPath id="clip0_679_2583">
<rect width="32" height="31" fill="white"/>
</clipPath>
</defs>
</svg>

