<svg xmlns="http://www.w3.org/2000/svg" viewBox="0 0 806 979" width="806" height="979" fill="none" color="#98b797" role="img" aria-label="BriefBoard">
<g id="briefboard-mark">
<path id="logo-cream" fill="#f1efe2" d="M351.00,977.98C333.50,977.80 316.00,977.63 298.50,977.46C298.42,977.38 298.33,977.30 298.25,977.23C298.17,977.15 298.08,977.08 298.00,977.00C298.00,976.51 298.00,976.01 298.00,975.52C298.00,975.03 298.00,974.53 298.00,974.04C298.75,973.88 299.50,973.73 300.25,973.58C301.00,973.42 301.75,973.27 302.50,973.12C304.67,972.92 306.83,972.72 309.00,972.51C311.17,972.31 313.33,972.11 315.50,971.91C320.50,971.08 325.50,970.25 330.50,969.42C335.50,968.58 340.50,967.75 345.50,966.92C350.17,965.79 354.83,964.66 359.50,963.53C364.17,962.40 368.83,961.28 373.50,960.15C378.68,958.47 383.85,956.79 389.03,955.10C394.21,953.42 399.38,951.74 404.56,950.06C408.21,948.53 411.87,947.00 415.53,945.48C419.19,943.95 422.84,942.42 426.50,940.89C429.67,939.20 432.83,937.52 436.00,935.83C439.17,934.15 442.33,932.46 445.50,930.78C448.33,928.94 451.17,927.09 454.00,925.25C456.83,923.41 459.67,921.57 462.50,919.73C464.50,918.21 466.50,916.69 468.50,915.17C470.50,913.65 472.50,912.13 474.50,910.62C477.45,907.76 480.41,904.91 483.36,902.06C486.31,899.21 489.26,896.35 492.22,893.50C494.12,891.17 496.03,888.83 497.94,886.50C499.84,884.17 501.75,881.83 503.66,879.50C505.33,877.00 507.01,874.50 508.68,872.00C510.35,869.50 512.03,867.00 513.70,864.50C515.06,862.09 516.43,859.68 517.79,857.27C519.15,854.86 520.51,852.45 521.88,850.04C523.27,846.95 524.67,843.86 526.07,840.77C527.47,837.68 528.86,834.59 530.26,831.50C531.23,828.67 532.19,825.83 533.16,823.00C534.13,820.17 535.09,817.33 536.06,814.50C536.85,811.50 537.65,808.50 538.44,805.50C539.23,802.50 540.03,799.50 540.82,796.50C541.51,793.00 542.20,789.50 542.89,786.00C543.58,782.50 544.27,779.00 544.96,775.50C545.52,771.67 546.07,767.83 546.62,764.00C547.17,760.17 547.73,756.33 548.28,752.50C548.43,736.80 548.57,721.10 548.72,705.40C548.87,689.71 549.02,674.01 549.17,658.31C548.63,652.67 548.10,647.04 547.57,641.40C547.03,635.77 546.50,630.13 545.97,624.50C544.95,619.51 543.92,614.52 542.90,609.53C541.88,604.54 540.86,599.56 539.84,594.57C538.52,590.56 537.20,586.54 535.89,582.53C534.57,578.52 533.25,574.51 531.94,570.50C530.13,566.74 528.32,562.98 526.52,559.23C524.71,555.47 522.90,551.71 521.10,547.95C519.50,545.55 517.90,543.14 516.30,540.73C514.70,538.32 513.10,535.91 511.50,533.51C508.67,530.56 505.85,527.61 503.02,524.67C500.20,521.72 497.37,518.77 494.55,515.83C491.87,514.04 489.19,512.26 486.51,510.48C483.83,508.69 481.15,506.91 478.47,505.13C475.97,504.13 473.48,503.13 470.98,502.13C468.49,501.13 465.99,500.14 463.50,499.14C460.11,498.45 456.73,497.76 453.34,497.07C449.96,496.38 446.57,495.69 443.19,495.00C427.35,495.00 411.51,495.00 395.67,495.00C379.84,495.00 364.00,495.00 348.16,495.00C347.64,494.80 347.11,494.60 346.58,494.39C346.05,494.19 345.53,493.99 345.00,493.79C345.00,493.33 345.00,492.87 345.00,492.41C345.00,491.95 345.00,491.50 345.00,491.04C345.92,490.81 346.83,490.59 347.75,490.37C348.67,490.14 349.58,489.92 350.50,489.69C354.83,487.96 359.17,486.22 363.50,484.48C367.83,482.75 372.17,481.01 376.50,479.27C379.96,477.28 383.42,475.28 386.87,473.28C390.33,471.28 393.79,469.29 397.25,467.29C400.23,465.19 403.20,463.08 406.18,460.98C409.16,458.88 412.14,456.77 415.12,454.67C418.52,451.72 421.91,448.77 425.31,445.82C428.71,442.87 432.10,439.92 435.50,436.97C438.78,433.39 442.07,429.82 445.35,426.24C448.63,422.66 451.92,419.08 455.20,415.50C457.60,412.32 460.01,409.14 462.41,405.96C464.81,402.78 467.22,399.60 469.62,396.42C471.57,393.27 473.53,390.11 475.48,386.96C477.43,383.81 479.39,380.65 481.34,377.50C483.41,373.33 485.49,369.17 487.56,365.00C489.63,360.83 491.70,356.67 493.77,352.50C495.00,349.35 496.23,346.21 497.46,343.06C498.69,339.91 499.92,336.77 501.16,333.62C502.27,329.73 503.39,325.84 504.51,321.95C505.63,318.06 506.75,314.17 507.87,310.28C508.71,305.98 509.55,301.69 510.39,297.39C511.22,293.09 512.06,288.80 512.90,284.50C513.33,281.33 513.77,278.17 514.20,275.00C514.63,271.83 515.07,268.67 515.50,265.50C515.50,221.25 515.50,177.00 515.50,132.75C515.50,88.50 515.50,44.25 515.50,0.00C517.44,0.00 519.38,0.00 521.32,0.00C523.26,0.00 525.21,0.00 527.15,0.00C529.64,0.84 532.13,1.67 534.62,2.51C537.11,3.34 539.60,4.18 542.09,5.01C543.99,5.98 545.89,6.94 547.79,7.90C549.70,8.86 551.60,9.82 553.50,10.78C555.50,12.26 557.50,13.74 559.50,15.22C561.50,16.71 563.50,18.19 565.50,19.67C581.29,35.30 597.08,50.94 612.87,66.58C628.66,82.22 644.45,97.86 660.24,113.50C662.82,116.50 665.39,119.50 667.96,122.50C670.54,125.50 673.11,128.50 675.68,131.50C678.01,134.67 680.34,137.83 682.67,141.00C684.99,144.17 687.32,147.33 689.65,150.50C691.72,153.82 693.78,157.13 695.85,160.45C697.92,163.77 699.99,167.08 702.06,170.40C704.18,174.58 706.30,178.77 708.42,182.95C710.55,187.13 712.67,191.32 714.79,195.50C715.71,197.67 716.62,199.83 717.54,202.00C718.45,204.17 719.37,206.33 720.28,208.50C721.74,212.80 723.20,217.10 724.65,221.41C726.11,225.71 727.57,230.01 729.02,234.31C729.86,237.80 730.71,241.30 731.55,244.79C732.39,248.28 733.23,251.77 734.07,255.27C734.71,259.14 735.35,263.01 735.99,266.88C736.63,270.76 737.27,274.63 737.90,278.50C738.25,282.33 738.60,286.17 738.95,290.00C739.30,293.83 739.64,297.67 739.99,301.50C739.99,305.03 740.00,308.57 740.00,312.10C740.00,315.64 740.00,319.17 740.00,322.71C739.66,327.01 739.31,331.31 738.97,335.60C738.62,339.90 738.28,344.20 737.93,348.50C737.27,352.50 736.60,356.50 735.93,360.50C735.26,364.50 734.60,368.50 733.93,372.50C732.94,376.39 731.95,380.28 730.96,384.17C729.97,388.07 728.99,391.96 728.00,395.85C726.97,398.79 725.94,401.73 724.91,404.67C723.89,407.62 722.86,410.56 721.83,413.50C719.55,418.24 717.27,422.99 714.99,427.73C712.71,432.48 710.43,437.22 708.15,441.97C706.26,444.86 704.38,447.75 702.50,450.64C700.61,453.53 698.73,456.41 696.85,459.30C694.39,462.39 691.94,465.47 689.49,468.55C687.03,471.63 684.58,474.71 682.13,477.79C679.36,480.10 676.59,482.41 673.81,484.72C671.04,487.03 668.27,489.33 665.50,491.64C664.42,492.39 663.33,493.14 662.25,493.89C661.17,494.64 660.08,495.39 659.00,496.14C659.00,496.39 659.00,496.65 659.00,496.91C659.00,497.17 659.00,497.42 659.00,497.68C660.92,498.11 662.83,498.54 664.75,498.97C666.67,499.39 668.58,499.82 670.50,500.25C673.81,501.40 677.11,502.55 680.42,503.70C683.72,504.85 687.03,505.99 690.33,507.14C692.88,508.42 695.42,509.70 697.97,510.98C700.51,512.26 703.06,513.54 705.61,514.82C708.76,516.93 711.90,519.03 715.05,521.14C718.20,523.24 721.35,525.35 724.50,527.45C728.87,531.80 733.24,536.14 737.61,540.48C741.98,544.82 746.35,549.16 750.72,553.50C753.05,556.67 755.38,559.83 757.70,563.00C760.03,566.17 762.35,569.33 764.68,572.50C766.59,575.76 768.50,579.02 770.42,582.28C772.33,585.54 774.24,588.80 776.15,592.06C777.77,595.46 779.39,598.87 781.02,602.28C782.64,605.69 784.26,609.09 785.88,612.50C787.03,615.69 788.18,618.88 789.33,622.06C790.48,625.25 791.63,628.44 792.78,631.63C793.81,635.27 794.83,638.92 795.86,642.56C796.89,646.21 797.92,649.85 798.95,653.50C800.03,658.67 801.11,663.83 802.19,669.00C803.27,674.17 804.35,679.33 805.43,684.50C805.44,697.50 805.45,710.50 805.47,723.50C805.48,736.50 805.49,749.50 805.50,762.50C804.89,765.83 804.27,769.17 803.66,772.50C803.04,775.83 802.43,779.17 801.81,782.50C800.85,786.39 799.88,790.28 798.91,794.17C797.95,798.05 796.98,801.94 796.01,805.83C794.64,809.78 793.26,813.72 791.88,817.67C790.51,821.61 789.13,825.56 787.75,829.50C785.76,833.50 783.77,837.50 781.77,841.50C779.78,845.50 777.79,849.50 775.79,853.50C773.72,856.67 771.65,859.83 769.58,863.00C767.51,866.17 765.44,869.33 763.37,872.50C762.11,874.17 760.85,875.83 759.58,877.50C758.32,879.17 757.06,880.83 755.80,882.50C753.19,885.50 750.58,888.50 747.97,891.50C745.36,894.50 742.75,897.50 740.14,900.50C736.62,903.64 733.10,906.79 729.58,909.93C726.06,913.07 722.54,916.22 719.02,919.36C715.60,921.83 712.18,924.31 708.76,926.78C705.34,929.26 701.92,931.73 698.50,934.20C695.39,936.04 692.27,937.88 689.16,939.72C686.04,941.55 682.93,943.39 679.81,945.23C675.64,947.22 671.46,949.22 667.29,951.22C663.11,953.22 658.93,955.21 654.76,957.21C648.88,959.15 643.01,961.08 637.13,963.02C631.25,964.95 625.38,966.89 619.50,968.82C616.27,969.52 613.05,970.21 609.82,970.90C606.60,971.59 603.37,972.28 600.14,972.98C596.87,973.46 593.60,973.94 590.32,974.43C587.05,974.91 583.77,975.40 580.50,975.88C575.17,976.25 569.83,976.63 564.50,977.00C559.17,977.37 553.83,977.74 548.50,978.12C524.33,978.18 500.17,978.24 476.00,978.31C451.83,978.37 427.67,978.44 403.50,978.50C386.00,978.33 368.50,978.15 351.00,977.98Z"/>
<path id="logo-green" fill="currentColor" d="M34.35,977.59C32.63,977.17 30.91,976.75 29.20,976.33C27.35,975.43 25.50,974.52 23.66,973.62C21.81,972.72 19.96,971.81 18.12,970.91C16.43,969.40 14.75,967.89 13.07,966.38C11.39,964.87 9.71,963.35 8.03,961.84C6.78,959.30 5.52,956.76 4.27,954.22C3.01,951.68 1.76,949.14 0.50,946.60C0.50,794.40 0.50,642.20 0.50,490.00C0.50,337.80 0.50,185.60 0.50,33.40C1.75,30.86 3.01,28.33 4.26,25.79C5.51,23.25 6.77,20.72 8.02,18.18C9.86,16.50 11.71,14.81 13.55,13.12C15.40,11.44 17.25,9.75 19.09,8.06C21.64,6.80 24.19,5.54 26.74,4.28C29.29,3.02 31.85,1.76 34.40,0.50C115.25,0.50 196.10,0.50 276.95,0.50C357.80,0.50 438.65,0.50 519.50,0.50C519.50,45.00 519.50,89.50 519.50,134.00C519.50,178.50 519.50,223.00 519.50,267.50C519.07,270.67 518.63,273.83 518.20,277.00C517.77,280.17 517.33,283.33 516.90,286.50C516.06,290.80 515.22,295.09 514.39,299.39C513.55,303.69 512.71,307.98 511.87,312.28C510.75,316.17 509.63,320.06 508.51,323.95C507.39,327.84 506.27,331.73 505.16,335.62C503.92,338.77 502.69,341.91 501.46,345.06C500.23,348.21 499.00,351.35 497.77,354.50C495.70,358.67 493.63,362.83 491.56,367.00C489.49,371.17 487.41,375.33 485.34,379.50C483.39,382.65 481.43,385.81 479.48,388.96C477.53,392.11 475.57,395.27 473.62,398.42C471.22,401.60 468.81,404.78 466.41,407.96C464.01,411.14 461.60,414.32 459.20,417.50C455.92,421.08 452.63,424.66 449.35,428.24C446.07,431.82 442.78,435.39 439.50,438.97C436.10,441.92 432.71,444.87 429.31,447.82C425.91,450.77 422.52,453.72 419.12,456.67C416.12,458.79 413.11,460.91 410.11,463.03C407.10,465.15 404.10,467.28 401.09,469.40C397.16,471.65 393.23,473.91 389.30,476.16C385.36,478.42 381.43,480.67 377.50,482.93C373.18,484.65 368.86,486.38 364.53,488.11C360.21,489.83 355.89,491.56 351.57,493.29C351.12,493.74 350.66,494.19 350.21,494.64C349.76,495.10 349.31,495.55 348.86,496.00C347.62,496.00 346.39,496.00 345.16,496.00C343.93,496.00 342.69,496.00 341.46,496.00C339.02,496.68 336.58,497.35 334.14,498.03C331.70,498.70 329.26,499.38 326.82,500.06C325.11,500.92 323.40,501.79 321.69,502.66C319.98,503.52 318.27,504.39 316.56,505.26C314.52,507.30 312.48,509.34 310.44,511.38C308.40,513.42 306.36,515.46 304.32,517.50C303.13,520.00 301.94,522.50 300.75,525.00C299.57,527.50 298.38,530.00 297.19,532.50C296.83,534.27 296.46,536.03 296.10,537.80C295.73,539.57 295.37,541.33 295.00,543.10C295.00,614.75 295.00,686.40 295.00,758.05C295.00,829.70 295.00,901.35 295.00,973.00C295.64,973.00 296.28,973.00 296.92,973.00C297.56,973.00 298.20,973.00 298.84,973.00C299.36,973.20 299.89,973.40 300.42,973.61C300.95,973.81 301.47,974.01 302.00,974.21C302.00,974.67 302.00,975.13 302.00,975.59C302.00,976.05 302.00,976.50 302.00,976.96C301.25,977.13 300.50,977.29 299.75,977.46C299.00,977.62 298.25,977.79 297.50,977.95C296.67,978.00 295.83,978.04 295.00,978.08C294.17,978.13 293.33,978.17 292.50,978.22C250.33,978.32 208.17,978.43 166.00,978.53C123.83,978.64 81.67,978.74 39.50,978.85C37.78,978.43 36.07,978.01 34.35,977.59Z"/>
<path id="logo-dark" fill="#414a54" d="M292.25,977.31C291.83,977.15 291.42,976.99 291.00,976.83C291.00,904.21 291.00,831.59 291.00,758.97C291.00,686.34 291.00,613.72 291.00,541.10C291.37,539.33 291.73,537.57 292.10,535.80C292.46,534.03 292.83,532.27 293.19,530.50C294.38,528.00 295.56,525.50 296.74,523.00C297.92,520.50 299.11,518.00 300.29,515.50C302.49,513.33 304.69,511.17 306.89,509.00C309.10,506.83 311.30,504.67 313.50,502.50C315.67,501.44 317.83,500.38 320.00,499.32C322.17,498.26 324.33,497.20 326.50,496.13C329.00,495.39 331.50,494.64 334.00,493.89C336.50,493.14 339.00,492.40 341.50,491.65C357.29,491.51 373.08,491.38 388.87,491.25C404.66,491.11 420.45,490.98 436.24,490.84C439.12,491.22 442.00,491.59 444.87,491.97C447.75,492.34 450.62,492.72 453.50,493.09C455.97,493.77 458.44,494.46 460.90,495.14C463.37,495.82 465.84,496.51 468.31,497.19C470.72,498.29 473.13,499.39 475.53,500.48C477.94,501.58 480.35,502.68 482.76,503.78C485.24,505.45 487.73,507.13 490.21,508.80C492.69,510.48 495.17,512.15 497.66,513.83C500.17,516.32 502.68,518.80 505.19,521.29C507.70,523.78 510.22,526.27 512.73,528.75C514.93,532.06 517.13,535.37 519.33,538.67C521.53,541.98 523.73,545.28 525.93,548.59C527.42,551.74 528.91,554.89 530.39,558.04C531.88,561.20 533.37,564.35 534.85,567.50C536.18,571.50 537.51,575.50 538.83,579.50C540.16,583.50 541.49,587.50 542.82,591.50C543.67,595.33 544.52,599.17 545.37,603.00C546.22,606.83 547.07,610.67 547.93,614.50C548.45,618.50 548.98,622.50 549.51,626.50C550.04,630.50 550.57,634.50 551.10,638.50C551.37,644.83 551.65,651.17 551.93,657.50C552.20,663.83 552.48,670.17 552.76,676.50C552.64,687.83 552.53,699.17 552.42,710.50C552.30,721.83 552.19,733.17 552.07,744.50C551.72,748.17 551.37,751.83 551.02,755.50C550.66,759.17 550.31,762.83 549.96,766.50C549.27,770.67 548.58,774.83 547.89,779.00C547.20,783.17 546.52,787.33 545.83,791.50C544.71,795.83 543.60,800.17 542.49,804.50C541.38,808.83 540.27,813.17 539.15,817.50C538.12,820.40 537.09,823.31 536.06,826.21C535.03,829.11 534.00,832.02 532.97,834.92C531.50,838.10 530.02,841.28 528.54,844.46C527.07,847.64 525.59,850.82 524.11,854.01C522.25,857.17 520.39,860.34 518.52,863.51C516.66,866.67 514.79,869.84 512.93,873.01C510.48,876.25 508.03,879.50 505.57,882.75C503.12,886.00 500.67,889.25 498.22,892.50C495.43,895.33 492.64,898.17 489.86,901.00C487.07,903.84 484.29,906.67 481.50,909.50C478.15,912.02 474.81,914.54 471.46,917.06C468.11,919.58 464.77,922.10 461.42,924.62C458.40,926.49 455.37,928.36 452.34,930.23C449.32,932.10 446.29,933.98 443.27,935.85C439.97,937.50 436.68,939.15 433.38,940.81C430.09,942.46 426.79,944.11 423.50,945.76C419.83,947.27 416.17,948.77 412.50,950.28C408.83,951.79 405.17,953.29 401.50,954.80C397.17,956.18 392.83,957.56 388.50,958.94C384.17,960.33 379.83,961.71 375.50,963.09C370.95,964.24 366.40,965.38 361.85,966.53C357.30,967.68 352.75,968.83 348.20,969.97C342.42,970.96 336.64,971.95 330.85,972.93C325.07,973.92 319.28,974.90 313.50,975.89C310.83,976.09 308.17,976.30 305.50,976.50C302.83,976.71 300.17,976.92 297.50,977.12C296.83,977.23 296.17,977.34 295.50,977.46C294.83,977.57 294.17,977.68 293.50,977.79C293.08,977.63 292.67,977.47 292.25,977.31Z"/>
</g>
</svg>
