<svg xmlns="http://www.w3.org/2000/svg" viewBox="0 0 806 979" width="806" height="979" fill="none" role="img" aria-label="BriefBoard">
<path id="logo-cream" fill="#f1efe2" fill-rule="evenodd" d="M103.33,977.25C137.33,977.10 192.68,977.10 226.33,977.25C259.97,977.40 232.15,977.52 164.50,977.52C96.85,977.52 69.32,977.40 103.33,977.25ZM351.50,976.00L299.50,975.50L307.50,974.75C330.17,972.61 363.45,965.41 389.03,957.10C445.79,938.67 484.73,911.75 510.68,873.00C530.90,842.80 541.93,811.41 548.62,765.00L550.28,753.50L550.72,705.39L551.16,657.28L549.57,640.39C546.60,609.06 539.35,580.76 528.52,558.23C521.32,543.26 515.25,534.33 505.02,523.67L496.55,514.83L488.29,509.33C477.89,502.41 466.35,497.70 453.34,495.06L443.19,493.00L394.84,492.96L346.50,492.93L353.00,490.61C388.91,477.79 420.31,456.71 447.35,427.24C486.08,385.02 507.81,337.29 516.20,276.00L517.50,266.50L517.50,133.75L517.50,1.00L519.00,1.02C527.74,1.12 545.78,7.96 555.69,14.93L562.50,19.72L610.37,67.11C636.70,93.17 661.72,118.55 665.96,123.50C702.07,165.60 725.22,214.72 733.99,267.88C739.19,299.41 739.17,328.10 733.93,359.50C729.62,385.32 723.60,404.65 712.99,426.73C705.26,442.81 698.24,454.04 687.42,467.63L679.99,476.96L671.22,484.23C666.40,488.23 660.78,492.62 658.73,494.00C656.69,495.38 655.16,496.95 655.33,497.50C655.51,498.05 659.45,499.50 664.08,500.72C694.94,508.86 713.11,519.21 735.60,541.50C754.40,560.12 767.02,578.08 779.02,603.28C790.88,628.19 800.06,661.74 803.58,693.00L804.98,705.50L804.98,725.00L804.98,744.50L803.50,757.00C796.06,819.82 770.83,870.30 727.58,908.93C700.34,933.26 672.15,949.48 637.04,961.05C610.85,969.67 593.79,972.95 564.50,975.00L548.50,976.12L476.00,976.31C436.12,976.41 380.10,976.27 351.50,976.00ZM26.53,974.27C22.27,973.19 11.19,963.69 7.55,958.00C6.32,956.08 4.23,951.80 2.91,948.50L0.50,942.50L0.22,494.00L-0.06,45.50L1.02,39.12L2.10,32.75L5.46,26.12C7.31,22.48 10.33,17.87 12.18,15.88C15.58,12.21 27.44,4.00 29.35,4.00C29.92,4.00 27.71,5.60 24.44,7.56C21.17,9.52 16.56,13.01 14.19,15.31L9.88,19.50L6.46,26.50L3.04,33.50L2.03,40.00L1.02,46.50L1.03,489.50L1.04,932.50L2.02,939.50L3.01,946.50L6.52,953.67L10.03,960.84L15.06,965.37C17.83,967.86 22.44,971.03 25.30,972.41C30.33,974.85 30.64,975.31 26.53,974.27Z"/>
<path id="logo-green" fill="#98b797" fill-rule="evenodd" d="M34.46,975.61C27.09,973.82 20.71,970.44 15.04,965.34L10.03,960.84L6.52,953.67L3.01,946.50L2.02,939.50L1.04,932.50L1.03,489.50L1.02,46.50L2.03,40.00L3.04,33.50L6.53,26.34L10.02,19.18L15.54,14.14C18.57,11.37 23.85,7.74 27.28,6.07L33.50,3.04L40.50,2.00L47.50,0.96L282.50,1.23L517.50,1.50L517.50,134.00L517.50,266.50L516.20,276.00C514.15,290.94 510.17,310.23 506.51,322.95C485.45,396.13 429.58,460.00 363.38,486.56C355.93,489.55 349.09,492.01 348.17,492.02L346.50,492.03L348.00,493.00L349.50,493.97L345.48,493.98C340.24,494.00 328.15,497.38 321.10,500.80L315.52,503.50L308.91,510.00L302.29,516.50L298.74,524.00C296.79,528.12 294.70,533.88 294.10,536.80L293.00,542.10L293.00,758.92L293.00,975.74L289.25,976.36C287.19,976.70 230.15,976.94 162.50,976.90L39.50,976.83L34.46,975.61ZM550.41,707.00C550.41,697.92 550.56,694.21 550.74,698.75C550.93,703.29 550.93,710.71 550.74,715.25C550.56,719.79 550.41,716.08 550.41,707.00Z"/>
<path id="logo-dark" fill="#414a54" fill-rule="evenodd" d="M293.00,759.07L293.00,542.10L294.10,536.80C294.70,533.88 296.79,528.12 298.74,524.00L302.29,516.50L308.91,510.00L315.52,503.50L321.10,500.80C324.17,499.31 330.01,497.10 334.09,495.87L341.50,493.65L388.87,493.25L436.24,492.84L444.87,493.97C468.46,497.04 486.57,505.83 503.19,522.29L510.73,529.75L517.33,539.67C537.08,569.35 547.76,608.15 549.89,658.00C550.76,678.50 550.52,732.92 549.48,748.50C547.34,780.82 538.30,818.35 526.67,843.25C497.43,905.86 446.81,943.10 361.85,964.53C346.22,968.47 317.27,973.60 305.50,974.50C301.10,974.84 296.49,975.33 295.25,975.58L293.00,976.04L293.00,759.07Z"/>
</svg>
