<svg xmlns="http://www.w3.org/2000/svg" viewBox="0 0 806 979" width="806" height="979" fill="none" role="img" aria-label="BriefBoard">
<path id="logo-cream" fill="#f1efe2" d="M351.00,977.98C322.12,977.69 298.39,977.35 298.25,977.23C298.11,977.10 298.00,976.33 298.00,975.52C298.00,973.85 299.73,973.37 309.00,972.51C320.03,971.49 344.80,967.09 359.50,963.53C430.25,946.42 478.78,916.65 508.68,872.00C528.90,841.80 539.94,810.39 546.62,764.00L548.28,752.50L548.72,705.40L549.17,658.31L547.57,641.40C544.60,610.06 537.35,581.76 526.52,559.23C519.32,544.26 513.25,535.33 503.02,524.67L494.55,515.83L486.51,510.48C476.46,503.79 466.41,499.73 453.34,497.07L443.19,495.00L395.67,495.00C369.54,495.00 347.45,494.73 346.58,494.39C344.07,493.43 344.74,491.10 347.75,490.37C354.63,488.68 377.48,478.71 386.87,473.28C442.88,440.93 486.37,384.99 504.51,321.95C508.17,309.23 512.15,289.94 514.20,275.00L515.50,265.50L515.50,132.75L515.50,0.00L521.32,0.00L527.15,0.00L534.62,2.51C544.33,5.77 552.06,9.72 559.50,15.22C566.97,20.75 657.44,110.23 667.96,122.50C704.07,164.58 727.22,213.72 735.99,266.88C742.50,306.33 740.82,345.37 730.96,384.17C726.77,400.69 722.84,411.39 714.99,427.73C707.28,443.78 700.24,455.04 689.49,468.55L682.13,477.79L673.81,484.72C669.24,488.53 664.04,492.65 662.25,493.89C660.46,495.13 659.00,496.48 659.00,496.91C659.00,497.33 661.59,498.26 664.75,498.97C681.10,502.61 699.42,510.69 715.05,521.14L724.50,527.45L737.61,540.48C771.09,573.73 790.22,611.81 802.19,669.00L805.43,684.50L805.47,723.50L805.50,762.50L803.66,772.50C798.82,798.75 791.36,822.26 781.77,841.50C753.35,898.54 702.05,941.64 637.13,963.02C610.84,971.67 593.81,974.95 564.50,977.00L548.50,978.12L476.00,978.31C436.12,978.41 379.88,978.26 351.00,977.98Z"/>
<path id="logo-green" fill="#98b797" d="M34.35,977.59C26.81,975.75 18.80,971.53 13.07,966.38L8.03,961.84L4.27,954.22L0.50,946.60L0.50,490.00L0.50,33.40L4.26,25.79L8.02,18.18L13.55,13.12L19.09,8.06L26.74,4.28L34.40,0.50L276.95,0.50L519.50,0.50L519.50,134.00L519.50,267.50L518.20,277.00C516.15,291.94 512.17,311.23 508.51,323.95C487.41,397.26 431.04,461.53 364.53,488.11C357.40,490.96 350.96,493.90 350.21,494.64C349.47,495.39 347.19,496.00 345.16,496.00C340.19,496.00 328.01,499.45 321.69,502.66C318.87,504.09 313.80,508.01 310.44,511.38L304.32,517.50L300.75,525.00C298.80,529.12 296.70,534.88 296.10,537.80L295.00,543.10L295.00,758.05L295.00,973.00L296.92,973.00C301.85,973.00 304.07,976.51 299.75,977.46C296.25,978.23 299.52,978.20 166.00,978.53L39.50,978.85L34.35,977.59Z"/>
<path id="logo-dark" fill="#414a54" d="M292.25,977.31L291.00,976.83L291.00,758.97L291.00,541.10L292.10,535.80C292.70,532.88 294.79,527.12 296.74,523.00L300.29,515.50L306.89,509.00L313.50,502.50L320.00,499.32C323.57,497.57 329.88,495.12 334.00,493.89L341.50,491.65L388.87,491.25L436.24,490.84L444.87,491.97C468.71,495.07 488.36,504.62 505.19,521.29L512.73,528.75L519.33,538.67C539.15,568.44 549.72,606.96 551.93,657.50C552.97,681.39 552.42,740.93 551.02,755.50C546.05,807.17 531.17,848.85 505.57,882.75C475.82,922.18 428.61,949.69 361.85,966.53C346.22,970.47 317.27,975.60 305.50,976.50C301.10,976.84 296.60,977.27 295.50,977.46C294.40,977.64 292.94,977.58 292.25,977.31Z"/>
</svg>
